<?xml version="1.0" encoding="UTF-8" standalone="no"?>
<svg
   id="Ebene_1"
   version="1.2"
   viewBox="0 0 160.89999 40.000001"
   sodipodi:docname="Beckhoff_logo_red_cmyk.svg"
   width="160.89999"
   height="40"
   inkscape:version="1.4.2 (f4327f4, 2025-05-13)"
   xmlns:inkscape="http://www.inkscape.org/namespaces/inkscape"
   xmlns:sodipodi="http://sodipodi.sourceforge.net/DTD/sodipodi-0.dtd"
   xmlns="http://www.w3.org/2000/svg"
   xmlns:svg="http://www.w3.org/2000/svg">
  <defs
     id="defs5" />
  <sodipodi:namedview
     id="namedview5"
     pagecolor="#505050"
     bordercolor="#eeeeee"
     borderopacity="1"
     inkscape:showpageshadow="0"
     inkscape:pageopacity="0"
     inkscape:pagecheckerboard="0"
     inkscape:deskcolor="#505050"
     inkscape:zoom="1.355619"
     inkscape:cx="70.447522"
     inkscape:cy="12.909232"
     inkscape:window-width="1920"
     inkscape:window-height="1009"
     inkscape:window-x="1016"
     inkscape:window-y="-8"
     inkscape:window-maximized="1"
     inkscape:current-layer="Ebene_1" />
  <!-- Generator: Adobe Illustrator 29.3.1, SVG Export Plug-In . SVG Version: 2.1.0 Build 151)  -->
  <path
     d="m 15.9,21.3 c 2.6,0.1 4.3,0 4.3,3 0,3 -1.3,3.2 -4.3,3.3 z m 0,-10.1 c 2.1,0 3.9,-0.1 3.9,2.4 0,2.5 -1.2,2.9 -3.9,3 v -5.5 z m 2.5,21.1 c 4.9,0 7.9,-2.2 7.9,-7.4 0,-5.2 -0.6,-4.5 -3.3,-6.1 v 0 c 2.1,-1.2 2.9,-3.2 2.9,-5.5 0,-5.2 -3.6,-6.6 -8.1,-6.6 H 10 v 25.7 h 8.5 z"
     fill="#e30613"
     fill-rule="evenodd"
     id="path1" />
  <polygon
     points="382.6,285 368.8,285 368.8,310.7 383.1,310.7 383.1,305.5 374.9,305.5 374.9,300 382.4,300 382.4,294.9 374.9,294.9 374.9,290.1 382.6,290.1 "
     fill="#e30613"
     fill-rule="evenodd"
     id="polygon1"
     transform="translate(-340.1,-278.4)" />
  <path
     d="M 61.7,15.6 V 13.4 C 61.7,8.2 58.6,6 53.5,6 48.4,6 45.4,8.6 45.4,14.2 v 10.5 c 0,5.2 2.2,8.2 7.7,8.2 5.5,0 8.7,-3.1 8.7,-7.5 v -3.1 h -6 v 2.3 c 0,1.6 -0.2,3.7 -2.2,3.7 -2,0 -2.2,-0.9 -2.2,-2.3 V 13.3 c 0,-1.7 0.5,-2.7 2.4,-2.7 1.1,0 1.9,1.1 1.9,3.3 v 1.6 h 6 z"
     fill="#e30613"
     fill-rule="evenodd"
     id="path2" />
  <polygon
     points="410.5,295.3 410.5,285 404.4,285 404.4,310.7 410.5,310.7 410.5,304.3 411.8,301.7 415.1,310.7 421.5,310.7 415.7,296.3 421.2,285 415,285 "
     fill="#e30613"
     fill-rule="evenodd"
     id="polygon2"
     transform="translate(-340.1,-278.4)" />
  <polygon
     points="429.1,285 423.1,285 423.1,310.7 429.1,310.7 429.1,300 433.3,300 433.3,310.7 439.4,310.7 439.4,285 433.3,285 433.3,294.9 429.1,294.9 "
     fill="#e30613"
     fill-rule="evenodd"
     id="polygon3"
     transform="translate(-340.1,-278.4)" />
  <path
     d="m 112.1,24.6 c 0,1.5 -0.1,3.7 -2.1,3.7 -2,0 -2.2,-2.2 -2.2,-3.7 V 14.1 c 0,-1.6 0.2,-3.5 2.2,-3.5 2,0 2.1,1.9 2.1,3.5 z m 6,-10.9 C 118.1,8.8 115.3,6 110,6 c -5.3,0 -8.2,2.7 -8.2,7.7 v 10.4 c 0,5.8 2.1,8.8 8.2,8.8 6.1,0 8.1,-3 8.1,-8.8 z"
     fill="#e30613"
     fill-rule="evenodd"
     id="path3" />
  <polygon
     points="467,299.8 474.5,299.8 474.5,294.7 467,294.7 467,290.1 475.1,290.1 475.1,285 460.9,285 460.9,310.7 467,310.7 "
     fill="#e30613"
     fill-rule="evenodd"
     id="polygon4"
     transform="translate(-340.1,-278.4)" />
  <polygon
     points="483.9,299.8 491.4,299.8 491.4,294.7 483.9,294.7 483.9,290.1 492,290.1 492,285 477.8,285 477.8,310.7 483.9,310.7 "
     fill="#e30613"
     fill-rule="evenodd"
     id="polygon5"
     transform="translate(-340.1,-278.4)" />
</svg>
