<?xml version="1.0" encoding="UTF-8" standalone="no"?>
<svg
   id="Ebene_1"
   version="1.2"
   viewBox="0 0 272.10001 20.299999"
   sodipodi:docname="Beckhoff_logo_nat_a4_red_cmyk.svg"
   width="272.10001"
   height="20.299999"
   inkscape:version="1.4.2 (f4327f4, 2025-05-13)"
   xmlns:inkscape="http://www.inkscape.org/namespaces/inkscape"
   xmlns:sodipodi="http://sodipodi.sourceforge.net/DTD/sodipodi-0.dtd"
   xmlns="http://www.w3.org/2000/svg"
   xmlns:svg="http://www.w3.org/2000/svg">
  <defs
     id="defs24" />
  <sodipodi:namedview
     id="namedview24"
     pagecolor="#505050"
     bordercolor="#eeeeee"
     borderopacity="1"
     inkscape:showpageshadow="0"
     inkscape:pageopacity="0"
     inkscape:pagecheckerboard="0"
     inkscape:deskcolor="#505050"
     inkscape:zoom="0.95854612"
     inkscape:cx="137.18693"
     inkscape:cy="8.8675963"
     inkscape:window-width="1920"
     inkscape:window-height="1009"
     inkscape:window-x="1072"
     inkscape:window-y="1072"
     inkscape:window-maximized="1"
     inkscape:current-layer="Ebene_1" />
  <!-- Generator: Adobe Illustrator 29.3.1, SVG Export Plug-In . SVG Version: 2.1.0 Build 151)  -->
  <g
     id="g19"
     inkscape:export-filename="Beckhoff_logo_nat_a4_red_cmyk2.svg"
     inkscape:export-xdpi="96"
     inkscape:export-ydpi="96"
     transform="translate(-161.1,-412.2)">
    <polygon
       points="260.5,421.2 260.5,421.2 263.9,429.2 266.1,429.2 266.1,418.9 264.4,418.9 264.4,427 264.4,427 261,418.9 258.8,418.9 258.8,429.2 260.5,429.2 "
       fill="#1d1d1b"
       id="polygon1" />
    <path
       d="m 273.5,427.4 c -0.3,0.2 -0.9,0.6 -2,0.6 -1.1,0 -1.9,-0.8 -1.9,-2.1 h 4.4 v -0.4 c 0,-3.1 -1.4,-4 -3,-4 -1.6,0 -3.1,1.7 -3.1,4 0,2.3 1.1,3.8 3.5,3.8 2.4,0 1.9,-0.3 2.3,-0.5 v -1.4 0 z m -3.9,-2.7 c 0,-1 0.4,-2 1.4,-2 1,0 1.3,0.7 1.3,2 h -2.6 z"
       fill="#1d1d1b"
       fill-rule="evenodd"
       id="path1" />
    <polygon
       points="285.3,421.6 283.6,421.6 282.4,427.5 282.3,427.5 281.1,421.6 279,421.6 277.7,427.5 277.7,427.5 276.5,421.6 274.6,421.6 276.7,429.2 278.7,429.2 280,423.3 280,423.3 281.4,429.2 283.3,429.2 "
       fill="#1d1d1b"
       id="polygon2" />
    <path
       d="m 291.5,425.3 1.4,-4.8 v 0 l 1.3,4.8 z m 3.9,3.9 h 1.9 L 294,418.9 h -2.1 l -3.4,10.3 h 1.9 l 0.7,-2.5 h 3.5 l 0.7,2.5 v 0 z"
       fill="#1d1d1b"
       fill-rule="evenodd"
       id="path2" />
    <path
       d="m 304.2,421.6 h -1.8 v 4.3 c 0,1 -0.3,1.9 -1.2,1.9 -0.9,0 -1.1,-0.5 -1.1,-1.7 v -4.5 h -1.8 v 4.9 c 0,1.5 0.5,2.8 2.2,2.8 1.7,0 1.7,-0.7 2,-1.3 v 0 c 0,0 0,0 0,0 0,0.4 0,0.8 0,1.2 h 1.7 c 0,-0.3 0,-0.8 0,-1.3 z"
       fill="#1d1d1b"
       fill-rule="evenodd"
       id="path3" />
    <path
       d="m 306.5,421.6 h -1.2 v 1.3 h 1.2 v 4.1 c 0,1.6 0.8,2.2 2.1,2.2 1.3,0 0.9,-0.1 1.2,-0.2 v -1.3 c -0.1,0 -0.4,0.2 -0.7,0.2 -0.5,0 -0.8,-0.2 -0.8,-1.1 v -3.9 h 1.5 v -1.3 h -1.5 v -2.1 l -1.8,0.6 v 1.6 0 z"
       fill="#1d1d1b"
       id="path4" />
    <path
       d="m 312.7,425.4 c 0,-1.3 0.3,-2.6 1.5,-2.6 1.2,0 1.4,1.3 1.4,2.6 0,1.3 -0.3,2.6 -1.4,2.6 -1.1,0 -1.5,-1.3 -1.5,-2.6 z m -1.9,0 c 0,3.2 1.8,3.9 3.3,3.9 1.5,0 3.3,-0.7 3.3,-3.9 0,-3.2 -1.8,-3.9 -3.3,-3.9 -1.5,0 -3.3,0.8 -3.3,3.9 z"
       fill="#1d1d1b"
       fill-rule="evenodd"
       id="path5" />
    <path
       d="m 318.8,429.2 h 1.8 v -4.6 c 0,-0.8 0.4,-1.6 1.2,-1.6 0.8,0 1,0.5 1,1.4 v 4.8 h 1.8 v -4.6 c 0,-0.8 0.4,-1.6 1.2,-1.6 0.8,0 1,0.5 1,1.4 v 4.8 h 1.8 v -4.7 c 0,-1.8 -0.5,-3 -2.2,-3 -1.7,0 -1.7,0.7 -2,1.2 -0.2,-0.4 -0.6,-1.2 -1.9,-1.2 -1.3,0 -1.6,0.7 -1.9,1.3 v 0 c 0,-0.4 0,-0.8 0,-1.2 h -1.8 c 0,0.3 0,0.7 0,1.2 v 6.3 0 z"
       fill="#1d1d1b"
       id="path6" />
    <path
       d="m 330.8,423.5 c 0.4,-0.3 1.2,-0.7 2.1,-0.7 0.9,0 1.4,0.7 1.4,1.4 v 0.3 h -0.4 c -2.3,0 -4,0.5 -4,2.6 0,2.1 1.1,2.2 2.3,2.2 1.2,0 1.7,-0.5 2.1,-1.1 v 0 c 0,0.4 0,0.7 0,1 h 1.6 c 0,-0.3 -0.1,-0.8 -0.1,-1.3 v -3.3 c 0,-1.9 -0.5,-3 -2.9,-3 -2.4,0 -1.9,0.3 -2.4,0.6 v 1.5 h 0.1 z m 3.4,2.4 c 0,1.4 -0.4,2.2 -1.5,2.2 -1.1,0 -1.2,-0.5 -1.2,-1.2 0,-1.1 0.9,-1.4 2.5,-1.4 h 0.2 z"
       fill="#1d1d1b"
       fill-rule="evenodd"
       id="path7" />
    <path
       d="m 338.3,421.6 h -1.2 v 1.3 h 1.2 v 4.1 c 0,1.6 0.8,2.2 2.1,2.2 1.3,0 0.9,-0.1 1.2,-0.2 v -1.3 c -0.1,0 -0.4,0.2 -0.7,0.2 -0.5,0 -0.8,-0.2 -0.8,-1.1 v -3.9 h 1.5 v -1.3 h -1.5 v -2.1 l -1.8,0.6 v 1.6 0 z"
       fill="#1d1d1b"
       id="path8" />
    <path
       d="m 343,429.2 h 1.8 v -7.6 H 343 Z m 0,-9 h 1.9 v -1.8 H 343 Z"
       fill="#1d1d1b"
       fill-rule="evenodd"
       id="path9" />
    <path
       d="m 348.3,425.4 c 0,-1.3 0.3,-2.6 1.4,-2.6 1.1,0 1.4,1.3 1.4,2.6 0,1.3 -0.3,2.6 -1.4,2.6 -1.1,0 -1.4,-1.3 -1.4,-2.6 z m -1.9,0 c 0,3.2 1.8,3.9 3.3,3.9 1.5,0 3.3,-0.7 3.3,-3.9 0,-3.2 -1.8,-3.9 -3.3,-3.9 -1.5,0 -3.3,0.8 -3.3,3.9 z"
       fill="#1d1d1b"
       fill-rule="evenodd"
       id="path10" />
    <path
       d="m 354.5,429.2 h 1.8 v -4.4 c 0,-1 0.3,-1.8 1.3,-1.8 1,0 1,0.5 1,1.6 v 4.5 h 1.8 v -4.9 c 0,-1.5 -0.5,-2.8 -2.2,-2.8 -1.7,0 -1.7,0.8 -2,1.3 v 0 0 c 0,-0.4 0,-0.8 0,-1.2 h -1.7 c 0,0.3 0,0.8 0,1.2 v 6.3 0 z"
       fill="#1d1d1b"
       fill-rule="evenodd"
       id="path11" />
    <polygon
       points="368.8,420.4 371,420.4 371,418.9 364.6,418.9 364.6,420.4 366.9,420.4 366.9,429.2 368.8,429.2 "
       fill="#1d1d1b"
       id="polygon11" />
    <path
       d="m 376.4,427.4 c -0.3,0.2 -0.9,0.6 -2,0.6 -1.1,0 -1.9,-0.8 -1.9,-2.1 h 4.4 v -0.4 c 0,-3.1 -1.4,-4 -3,-4 -1.6,0 -3.1,1.7 -3.1,4 0,2.3 1.1,3.8 3.5,3.8 2.4,0 1.9,-0.3 2.3,-0.5 v -1.4 0 z m -3.9,-2.7 c 0,-1 0.4,-2 1.4,-2 1,0 1.3,0.7 1.3,2 h -2.6 z"
       fill="#1d1d1b"
       fill-rule="evenodd"
       id="path12" />
    <path
       d="m 383.3,427.5 c -0.2,0.1 -0.8,0.4 -1.3,0.4 -1.4,0 -2.1,-1.1 -2.1,-2.5 0,-1.4 0.6,-2.5 2,-2.5 1.4,0 1,0.2 1.3,0.4 v -1.4 c -0.2,-0.1 -0.9,-0.3 -1.5,-0.3 -2.5,0 -3.7,1.7 -3.7,3.9 0,2.2 1.1,3.9 3.6,3.9 2.5,0 1.4,-0.2 1.8,-0.3 v -1.4 h -0.1 z"
       fill="#1d1d1b"
       id="path13" />
    <path
       d="m 384.5,429.2 h 1.8 v -4.4 c 0,-1 0.3,-1.8 1.3,-1.8 1,0 1,0.5 1,1.6 v 4.5 h 1.8 v -4.9 c 0,-1.5 -0.5,-2.8 -2.2,-2.8 -1.7,0 -1.6,0.6 -1.9,1.1 v 0 -4.4 h -1.8 v 11 0 z"
       fill="#1d1d1b"
       id="path14" />
    <path
       d="m 392.1,429.2 h 1.8 v -4.4 c 0,-1 0.3,-1.8 1.3,-1.8 1,0 1,0.5 1,1.6 v 4.5 h 1.8 v -4.9 c 0,-1.5 -0.5,-2.8 -2.2,-2.8 -1.7,0 -1.8,0.8 -2,1.3 v 0 0 c 0,-0.4 0,-0.8 0,-1.2 h -1.7 c 0,0.3 0,0.8 0,1.2 v 6.3 0 z"
       fill="#1d1d1b"
       fill-rule="evenodd"
       id="path15" />
    <path
       d="m 401.4,425.4 c 0,-1.3 0.3,-2.6 1.5,-2.6 1.2,0 1.4,1.3 1.4,2.6 0,1.3 -0.3,2.6 -1.4,2.6 -1.1,0 -1.5,-1.3 -1.5,-2.6 z m -1.9,0 c 0,3.2 1.8,3.9 3.3,3.9 1.5,0 3.3,-0.7 3.3,-3.9 0,-3.2 -1.8,-3.9 -3.3,-3.9 -1.5,0 -3.3,0.8 -3.3,3.9 z"
       fill="#1d1d1b"
       fill-rule="evenodd"
       id="path16" />
    <polygon
       points="409.6,418.2 407.8,418.2 407.8,429.2 409.6,429.2 "
       fill="#1d1d1b"
       id="polygon16" />
    <path
       d="m 413.1,425.4 c 0,-1.3 0.3,-2.6 1.4,-2.6 1.1,0 1.4,1.3 1.4,2.6 0,1.3 -0.3,2.6 -1.4,2.6 -1.1,0 -1.4,-1.3 -1.4,-2.6 z m -1.9,0 c 0,3.2 1.8,3.9 3.3,3.9 1.5,0 3.3,-0.7 3.3,-3.9 0,-3.2 -1.8,-3.9 -3.3,-3.9 -1.5,0 -3.3,0.8 -3.3,3.9 z"
       fill="#1d1d1b"
       fill-rule="evenodd"
       id="path17" />
    <path
       d="m 421,425.3 c 0,-1.5 0.4,-2.4 1.3,-2.4 0.9,0 1.5,0.8 1.5,2.4 0,1.6 -0.5,2.6 -1.6,2.6 -1.1,0 -1.2,-0.8 -1.2,-2.5 v 0 z m -1.5,6.7 c 0.4,0.2 1.4,0.5 2.6,0.5 2.8,0 3.5,-1.7 3.5,-4 v -5.6 c 0,-0.4 0,-0.8 0,-1.2 H 424 c 0,0.4 0,0.8 0,1.2 v 0 c -0.4,-0.7 -0.9,-1.3 -2,-1.3 -2,0 -2.7,1.8 -2.7,3.9 0,3.1 1.6,3.8 2.6,3.8 1,0 1.7,-0.7 2,-1.3 v 0 0.7 c 0,1.2 -0.3,2.4 -2,2.4 -1.7,0 -1.8,-0.4 -2.2,-0.6 v 1.6 h -0.1 z"
       fill="#1d1d1b"
       fill-rule="evenodd"
       id="path18" />
    <path
       d="m 428.3,421.6 h -1.9 l 2.5,7.6 v 0.6 c -0.4,0.8 -0.6,1.1 -1.1,1.1 -0.3,0 -0.5,0 -0.7,-0.1 v 1.4 c 0.2,0 0.6,0.2 1.1,0.2 1.2,0 1.8,-0.8 2.2,-1.8 l 2.8,-9 h -1.8 l -1.4,5.7 v 0 l -1.5,-5.7 v 0 z"
       fill="#1d1d1b"
       id="path19" />
  </g>
  <path
     d="m 3.8,9.9 c 1.6,0 2.7,0 2.7,1.9 0,1.9 -0.8,2.1 -2.7,2.1 v -4.1 0 z m 0,-6.5 c 1.4,0 2.5,0 2.5,1.6 0,1.6 -0.8,1.8 -2.5,2 v -3.5 0 z M 5.4,17 c 3.1,0 5,-1.4 5,-4.8 C 10.4,8.8 10,9.3 8.3,8.3 v 0 C 9.6,7.5 10.2,6.2 10.2,4.8 10.2,1.5 7.9,0.5 5,0.5 H 0 V 17 h 5.5 z"
     fill="#e30613"
     fill-rule="evenodd"
     id="path20" />
  <polygon
     points="177,425.9 177,422.3 181.8,422.3 181.8,419 177,419 177,416 182,416 182,412.7 173.1,412.7 173.1,429.2 182.2,429.2 182.2,425.9 "
     fill="#e30613"
     id="polygon20"
     transform="translate(-161.1,-412.2)" />
  <path
     d="M 33.1,6.2 V 4.8 C 33.1,1.4 31.1,0 27.8,0 24.5,0 22.6,1.7 22.6,5.3 v 6.8 c 0,3.4 1.4,5.3 4.9,5.3 3.5,0 5.6,-2 5.6,-4.8 v -2 h -3.9 v 1.5 c 0,1 -0.1,2.4 -1.4,2.4 -1.3,0 -1.4,-0.6 -1.4,-1.5 V 4.8 c 0,-1.1 0.3,-1.7 1.5,-1.7 0.7,0 1.2,0.7 1.2,2.1 V 6.3 H 33 Z"
     fill="#e30613"
     id="path21" />
  <polygon
     points="200.7,423.4 202.8,429.2 206.9,429.2 203.2,420 206.7,412.7 202.7,412.7 199.9,419.3 199.8,419.3 199.8,412.7 195.9,412.7 195.9,429.2 199.8,429.2 199.8,425.1 "
     fill="#e30613"
     id="polygon21"
     transform="translate(-161.1,-412.2)" />
  <polygon
     points="214.5,422.3 214.5,429.2 218.4,429.2 218.4,412.7 214.5,412.7 214.5,419 211.8,419 211.8,412.7 207.9,412.7 207.9,429.2 211.8,429.2 211.8,422.3 "
     fill="#e30613"
     id="polygon22"
     transform="translate(-161.1,-412.2)" />
  <path
     d="m 65.5,12 c 0,0.9 0,2.4 -1.3,2.4 -1.3,0 -1.4,-1.4 -1.4,-2.4 V 5.2 c 0,-1 0.2,-2.2 1.4,-2.2 1.2,0 1.4,1.2 1.4,2.2 v 6.8 0 z m 3.9,-7 c 0,-3.2 -1.8,-4.9 -5.2,-4.9 -3.4,0 -5.3,1.8 -5.3,4.9 v 6.7 c 0,3.7 1.4,5.7 5.3,5.7 3.9,0 5.2,-1.9 5.2,-5.7 z"
     fill="#e30613"
     fill-rule="evenodd"
     id="path22" />
  <polygon
     points="240.9,422.2 240.9,418.9 236.1,418.9 236.1,416 241.3,416 241.3,412.7 232.2,412.7 232.2,429.2 236.1,429.2 236.1,422.2 "
     fill="#e30613"
     id="polygon23"
     transform="translate(-161.1,-412.2)" />
  <polygon
     points="251.8,422.2 251.8,418.9 246.9,418.9 246.9,416 252.2,416 252.2,412.7 243.1,412.7 243.1,429.2 246.9,429.2 246.9,422.2 "
     fill="#e30613"
     id="polygon24"
     transform="translate(-161.1,-412.2)" />
</svg>
